#!OML:ASF Y:\EmotionMaleHayes\Project 1\Capture day 1\Session 1\Male1.ASF
:FULLY-SPECIFIED
:DEGREES
482
root 39.1152 15.2413 -0.595681 182.134 73.3308 209.91
lowerback 24.7055 7.02031 7.3988
upperback 4.06972 11.8643 2.62297
thorax -8.14218 5.72831 -4.84499
lowerneck -14.0855 -8.8755 -3.22762
upperneck 15.2015 -11.1169 -1.32757
head 7.06394 -5.62355 -1.04422
rclavicle 4.26393e-014 7.95139e-016
rhumerus -41.7627 -12.9202 -75.4681
rradius 41.0348
rwrist -18.6799
rhand -24.5862 -22.5946
rfingers 7.12502
rthumb 1.9112 -52.5657
lclavicle 4.26393e-014 7.95139e-016
lhumerus -69.0269 16.6038 51.5598
lradius 25.8524
lwrist 28.6476
lhand -34.0647 -22.0829
lfingers 7.12502
lthumb -7.24206 7.77321
rfemur -0.491091 -2.43888 26.8515
rtibia 56.7443
rfoot -205.688 -185.206
rtoes -4.17357
lfemur -29.3162 22.8973 -8.58708
ltibia 65.9633
lfoot 16.8917 -8.42725
ltoes 15.3434
483
root 39.2229 15.192 -0.624058 165.846 73.069 191.574
lowerback 23.6473 7.54424 2.44649
upperback 3.98819 11.0471 1.34388
thorax -8.41891 5.41975 -3.23137
lowerneck -14.5966 -8.60092 -3.12078
upperneck 14.5793 -10.739 -1.40223
head 6.93518 -5.44762 -1.04886
rclavicle -3.48867e-014 4.45278e-014
rhumerus -38.9644 -11.5321 -78.8386
rradius 41.7551
rwrist -18.3322
rhand -23.901 -22.0686
rfingers 7.12502
rthumb 2.57294 -52.0329
lclavicle -3.48867e-014 4.45278e-014
lhumerus -66.8682 18.9292 55.7765
lradius 26.3657
lwrist 30.688
lhand -35.6741 -17.8009
lfingers 7.12502
lthumb -8.79533 11.9959
rfemur -2.02699 -3.03582 20.3067
rtibia 58.2605
rfoot -207.018 -184.698
rtoes -5.34787
lfemur -28.4186 20.8197 -16.0978
ltibia 63.8952
lfoot 17.0526 -6.45782
ltoes 17.4307
484
root 39.3617 15.1109 -0.63986 165.814 73.2606 191.419
lowerback 23.4861 7.25676 2.6829
upperback 3.99976 10.7345 1.51627
thorax -8.33158 5.26793 -3.05981
lowerneck -14.957 -8.52931 -2.66169
upperneck 13.964 -10.6819 -1.70972
head 6.75158 -5.4277 -1.20442
rclavicle 8.18993e-014 7.15625e-015
rhumerus -36.4678 -9.17872 -82.1994
rradius 43.007
rwrist -19.5144
rhand -23.1492 -21.8753
rfingers 7.12502
rthumb 3.29901 -51.8295
lclavicle 8.18993e-014 7.15625e-015
lhumerus -66.8682 18.9292 55.7765
lradius 26.3657
lwrist 30.688
lhand -35.6741 -17.8009
lfingers 7.12502
lthumb -8.79533 11.9959
rfemur -1.9133 -3.43477 20.3154
rtibia 58.9604
rfoot -208.558 -185.167
rtoes -5.11073
lfemur -26.5968 19.4578 -16.5721
ltibia 62.5784
lfoot 17.2721 -4.71809
ltoes 19.5522
485
root 39.5245 15.0349 -0.650813 171.768 73.742 197.975
lowerback 23.5853 6.71019 4.72987
upperback 4.00001 10.6057 2.21495
thorax -8.16859 5.17039 -3.38079
lowerneck -15.5374 -8.41596 -2.7515
upperneck 13.9441 -10.5341 -1.46104
head 6.86172 -5.33744 -1.12484
rclavicle -8.89561e-015 7.31528e-014
rhumerus -34.4296 -6.15442 -85.3034
rradius 44.5548
rwrist -20.2078
rhand -23.0245 -21.567
rfingers 7.12502
rthumb 3.4194 -51.5193
lclavicle -8.89561e-015 7.31528e-014
lhumerus -66.8682 18.9292 55.7765
lradius 26.3657
lwrist 30.688
lhand -35.6741 -17.8009
lfingers 7.12502
lthumb -8.79533 11.9959
rfemur -0.864924 -3.69036 22.7852
rtibia 58.9111
rfoot -210.034 -186.483
rtoes -4.91172
lfemur -24.0161 18.4081 -14.3677
ltibia 61.1482
lfoot 17.3757 -3.1076
ltoes 25.468
486
root 39.665 14.9883 -0.69902 166.606 73.0123 191.21
lowerback 22.0422 6.54774 3.26772
upperback 3.62672 9.8681 1.66559
thorax -7.96307 4.83265 -2.8071
lowerneck -15.7907 -8.39152 -2.7442
upperneck 13.8622 -10.497 -1.45275
head 6.87752 -5.31817 -1.1286
rclavicle 5.84924e-014 3.97569e-015
rhumerus -32.7152 -2.51281 -88.1085
rradius 45.9719
rwrist -20.2562
rhand -23.8368 -20.6673
rfingers 7.12502
rthumb 2.63502 -50.6308
lclavicle 5.84924e-014 3.97569e-015
lhumerus -56.3105 17.0541 74.2664
lradius 31.9797
lwrist 43.6904
lhand -36.0522 -20.3954
lfingers 7.12502
lthumb -9.16016 9.38561
rfemur -1.29099 -4.72077 20.0507
rtibia 58.6269
rfoot -211.06 -186.726
rtoes -5.08547
lfemur -22.7403 16.3159 -18.0589
ltibia 58.7571
lfoot 10.9352 -8.34386
ltoes 31.3981
487
root 39.8138 14.9428 -0.737467 165.167 72.5676 188.689
lowerback 20.8407 6.30737 2.94947
upperback 3.26501 9.3834 1.45423
thorax -7.76268 4.59403 -2.60639
lowerneck -15.9391 -8.48145 -2.64739
upperneck 13.7362 -10.5794 -1.78232
head 6.83724 -5.38322 -1.25792
rclavicle 1.83876e-015 -1.59028e-015
rhumerus -31.1963 1.21982 -90.3828
rradius 47.5843
rwrist -19.9259
rhand -22.0269 -20.6906
rfingers 7.12502
rthumb 4.38284 -50.6252
lclavicle 1.83876e-015 -1.59028e-015
lhumerus -52.6499 13.5954 80.1961
lradius 34.4133
lwrist 46.4865
lhand -34.0566 -21.3343
lfingers 7.12502
lthumb -7.2342 8.52207
rfemur -1.20449 -5.00462 19.1259
rtibia 58.0154
rfoot -211.38 -187.087
rtoes -4.26916
lfemur -20.9853 14.6301 -20.0209
ltibia 56.2988
lfoot 1.68329 -10.403
ltoes 22.3299
488
root 39.9553 14.9075 -0.75837 165.945 72.2473 188.672
lowerback 20.0776 5.81563 3.09457
upperback 2.62664 8.70017 1.33598
thorax -8.04614 4.21972 -2.59159
lowerneck -15.7749 -8.30198 -2.54721
upperneck 13.9534 -10.4247 -1.4577
head 6.89302 -5.2731 -1.15383
rclavicle -3.3048e-014 1.35174e-014
rhumerus -30.1579 5.03198 -92.785
rradius 49.4335
rwrist -18.8546
rhand -21.6469 -20.6306
rfingers 7.12502
rthumb 4.74971 -50.5573
lclavicle -3.3048e-014 1.35174e-014
lhumerus -49.5273 11.148 83.8317
lradius 36.7758
lwrist 45.28
lhand -33.4894 -22.2091
lfingers 7.12502
lthumb -6.68667 7.66537
rfemur -1.21738 -4.75488 19.4993
rtibia 57.7404
rfoot -211.468 -187.797
rtoes -2.82071
lfemur -19.2731 13.029 -20.8542
ltibia 53.9982
lfoot -2.4217 -8.56362
ltoes 23.8458
489
root 40.0867 14.8883 -0.766108 167.648 71.9646 189.598
lowerback 20.9106 5.41667 3.49016
upperback 0.834667 8.26636 1.1829
thorax -10.4302 3.82661 -3.08026
lowerneck -14.8777 -8.21167 -2.57548
upperneck 15.0823 -10.3459 -1.32937
head 7.11805 -5.21632 -1.09451
rclavicle 3.57812e-015 -1.15295e-014
rhumerus -31.062 9.09254 -95.2844
rradius 51.0093
rwrist -18.2378
rhand -21.2446 -19.0978
rfingers 7.12502
rthumb 5.13821 -49.0155
lclavicle 3.57812e-015 -1.15295e-014
lhumerus -48.4507 5.55905 87.4639
lradius 39.9471
lwrist 45.2283
lhand -30.5712 -22.4123
lfingers 7.12502
lthumb -3.86908 7.53227
rfemur -1.7678 -4.3954 20.3871
rtibia 58.0766
rfoot -211.783 -188.439
rtoes -1.65646
lfemur -17.9092 11.4856 -21.2435
ltibia 51.6387
lfoot -6.98232 -8.2331
ltoes 26.4642
490
root 40.2202 14.9087 -0.772451 168.705 70.6295 190.276
lowerback 19.6524 4.5726 3.5988
upperback 0.949637 7.12634 1.31912
thorax -9.6782 3.32233 -2.54579
lowerneck -15.6323 -8.03923 -2.631
upperneck 15.2613 -10.0812 -1.30488
head 7.30897 -5.08667 -1.09005
rclavicle -6.58971e-014 2.14687e-014
rhumerus -29.3535 13.3399 -96.4746
rradius 53.1862
rwrist -16.0366
rhand -20.91 -19.716
rfingers 7.12502
rthumb 5.46127 -49.6256
lclavicle -6.58971e-014 2.14687e-014
lhumerus -45.2552 1.10517 90.428
lradius 43.352
lwrist 42.2784
lhand -29.2331 -23.4751
lfingers 7.12502
lthumb -2.5768 6.48911
rfemur -1.57436 -5.07656 20.7842
rtibia 57.9113
rfoot -212.136 -188.957
rtoes -1.05247
lfemur -16.8761 8.90977 -21.957
ltibia 49.9652
lfoot -9.42834 -6.70801
ltoes 32.9168
491
root 40.3298 14.9327 -0.764786 168.755 71.0352 189.333
lowerback 19.7044 4.54608 2.987
upperback -0.236372 6.95171 1.28602
thorax -11.1139 3.17915 -2.26779
lowerneck -15.1954 -7.86302 -2.75647
upperneck 15.9164 -9.81279 -1.34612
head 7.45341 -4.96294 -1.05471
rclavicle 4.12478e-014 7.95139e-016
rhumerus -29.8368 16.6131 -97.7951
rradius 55.9845
rwrist -14.7912
rhand -19.3864 -19.9454
rfingers 7.12502
rthumb 6.93215 -49.8119
lclavicle 4.12478e-014 7.95139e-016
lhumerus -44.3452 -3.92194 92.1982
lradius 47.084
lwrist 38.0678
lhand -27.9421 -25.4381
lfingers 7.12502
lthumb -1.32998 4.53748
rfemur -2.57115 -4.21232 21.1384
rtibia 58.3784
rfoot -212.466 -189.445
rtoes -1.62169
lfemur -17.2616 7.72838 -22.8618
ltibia 49.7142
lfoot -10.7262 -4.6839
ltoes 32.1344
